HIERARCHY
ROOT Hips
{
  OFFSET 40.9192 92.6879 18.85
  CHANNELS 6 Xposition Yposition Zposition Zrotation Xrotation Yrotation
  JOINT LeftUpLeg
  {
    OFFSET 8.64259 1.95398 -2.38835
    CHANNELS 3 Zrotation Xrotation Yrotation
    JOINT LeftLeg
    {
      OFFSET 43.7702 0 0
      CHANNELS 3 Zrotation Xrotation Yrotation
      JOINT LeftFoot
      {
        OFFSET 40.6238 0 0
        CHANNELS 3 Zrotation Xrotation Yrotation
        JOINT LeftToeBase
        {
          OFFSET 12.7242 0 0
          CHANNELS 3 Zrotation Xrotation Yrotation
          End Site
          {
            OFFSET 0 0 0
          }
        }
      }
    }
  }
  JOINT RightUpLeg
  {
    OFFSET -8.2249 1.95398 -2.59336
    CHANNELS 3 Zrotation Xrotation Yrotation
    JOINT RightLeg
    {
      OFFSET 43.5653 0 0
      CHANNELS 3 Zrotation Xrotation Yrotation
      JOINT RightFoot
      {
        OFFSET 40.6238 0 0
        CHANNELS 3 Zrotation Xrotation Yrotation
        JOINT RightToeBase
        {
          OFFSET 12.7242 0 0
          CHANNELS 3 Zrotation Xrotation Yrotation
          End Site
          {
            OFFSET 0 0 0
          }
        }
      }
    }
  }
  JOINT Spine
  {
    OFFSET 0.165834 0.87714 6.61349
    CHANNELS 3 Zrotation Xrotation Yrotation
    JOINT Spine1
    {
      OFFSET 7.38963 1.71661e-005 0
      CHANNELS 3 Zrotation Xrotation Yrotation
      JOINT Spine2
      {
        OFFSET 11.9445 1.14441e-005 0
        CHANNELS 3 Zrotation Xrotation Yrotation
        JOINT Spine3
        {
          OFFSET 14.7254 4.19617e-005 0
          CHANNELS 3 Zrotation Xrotation Yrotation
          JOINT Spine4
          {
            OFFSET 10.9679 0 0
            CHANNELS 3 Zrotation Xrotation Yrotation
            JOINT RightShoulder
            {
              OFFSET 2.46616 -1.6653 3.69651
              CHANNELS 3 Zrotation Xrotation Yrotation
              JOINT RightArm
              {
                OFFSET 13.0012 0 0
                CHANNELS 3 Zrotation Xrotation Yrotation
                JOINT RightForeArm
                {
                  OFFSET 28.7848 1.52588e-005 0
                  CHANNELS 3 Zrotation Xrotation Yrotation
                  JOINT RightHand
                  {
                    OFFSET 26.5688 1.52588e-005 0
                    CHANNELS 3 Zrotation Xrotation Yrotation
                    End Site
                    {
                      OFFSET 0 0 0
                    }
                  }
                }
              }
            }
            JOINT LeftShoulder
            {
              OFFSET 2.38034 -1.29275 -3.7523
              CHANNELS 3 Zrotation Xrotation Yrotation
              JOINT LeftArm
              {
                OFFSET 16.3182 6.10351e-005 0
                CHANNELS 3 Zrotation Xrotation Yrotation
                JOINT LeftForeArm
                {
                  OFFSET 27.0901 0 0
                  CHANNELS 3 Zrotation Xrotation Yrotation
                  JOINT LeftHand
                  {
                    OFFSET 24.5451 1.52588e-005 0
                    CHANNELS 3 Zrotation Xrotation Yrotation
                    End Site
                    {
                      OFFSET 0 0 0
                    }
                  }
                }
              }
            }
            JOINT Neck
            {
              OFFSET 5.0226 -0.0266342 0
              CHANNELS 3 Zrotation Xrotation Yrotation
              JOINT Head
              {
                OFFSET 6.69363 2.86102e-005 0
                CHANNELS 3 Zrotation Xrotation Yrotation
                End Site
                {
                  OFFSET 0 0 0
                }
              }
            }
          }
        }
      }
    }
  }
}
MOTION
Frames:	9
Frame Time:	0.0416667
-6.88187 97.6806 -38.1459 -107.457 -83.0564 -107.631 -170.426 2.81446 92.8461 -10.2588 9.36601 -2.41151 62.5237 1.9425 0.218492 29.2205 0.360958 -0.139835 173.144 2.22005 88.0149 -12.1579 -8.7433 -1.36594 65.1888 -3.0302 -1.6833 28.6923 0.00370275 -0.164231 0.0525487 7.12597 -89.9154 12.6286 0.144775 0.151974 0.957648 0.151325 0.145449 -21.5775 0.0924 0.188458 -1.56483 0.0924122 0.188468 92.6882 -46.7979 -97.2998 30.7118 -7.44697 1.4498 -8.94786 -27.4347 -41.4745 -3.23134 -0.713947 4.82694 -98.5637 -49.8824 66.0477 -21.2071 15.8696 1.3656 1.82617 12.7963 -29.9927 14.0578 0.997184 3.15361 15.2287 2.54311 -1.07751 -9.65012 2.65701 2.23286 
-6.89683 97.6713 -38.0995 -107.303 -82.9335 -107.497 -170.313 2.68068 92.9159 -10.1071 10.0672 -2.5451 62.4946 2.0548 0.586675 29.3244 0.376669 0.568397 173.14 2.28176 88.0209 -12.3447 -8.58081 -1.35997 65.1982 -3.00881 -1.66464 28.9999 0.00360027 0.12378 0.0512667 7.12613 -89.9302 12.6373 0.135147 0.123397 0.966305 0.140449 0.117324 -21.5688 0.0918103 0.158313 -1.55618 0.0918164 0.15831 92.6303 -46.5103 -97.4498 30.7956 -7.36243 1.37737 -10.0601 -29.4222 -41.1899 -3.65758 -0.82219 6.17299 -98.3716 -49.9782 66.3605 -21.604 15.3922 1.49829 2.31537 12.7204 -30.6631 12.8971 1.18719 5.13131 15.3046 2.59918 -1.03843 -10.0426 2.67396 2.70932 
-6.89036 97.6976 -38.0964 -107.561 -82.9287 -107.742 -170.296 2.61082 92.9336 -10.0221 9.83561 -2.54023 62.4344 2.02014 0.436608 29.2506 0.341755 0.314372 173.129 2.39527 88.0166 -12.5968 -8.55275 -1.34146 64.9995 -2.90559 -1.60499 29.3116 0.0197659 0.112253 0.0542923 7.12616 -89.9331 12.6199 0.139813 0.117295 0.94891 0.144838 0.111022 -21.5862 0.0980899 0.153892 -1.57359 0.0980901 0.153887 92.6619 -46.5225 -97.3966 30.7598 -7.46001 1.47676 -10.0563 -29.174 -41.6493 -3.35554 -0.813246 6.53117 -98.4396 -50.0222 66.2767 -21.5661 15.4037 1.46595 2.13924 12.4539 -30.5864 12.7498 1.18802 5.23914 15.3139 2.53186 -0.97304 -9.96053 2.59856 2.60238 
-6.89216 97.7038 -38.059 -107.312 -82.9742 -107.512 -170.342 2.54352 92.889 -9.85255 9.98786 -2.50631 62.3602 2.05421 0.621815 29.4696 0.515967 0.313194 173.139 2.54613 87.964 -12.8991 -9.02422 -1.39898 64.9763 -2.88772 -1.59515 29.5261 0.063813 -0.454893 0.0514923 7.1262 -89.938 12.623 0.131871 0.108393 0.95201 0.136519 0.102477 -21.5831 0.0932028 0.143014 -1.57049 0.0932024 0.143012 92.7012 -46.269 -97.3834 31.0159 -7.47546 1.46089 -10.1313 -29.4193 -41.4678 -3.56693 -0.827641 6.43575 -98.4954 -50.1366 66.2354 -21.5314 15.4265 1.43537 2.05831 12.39 -30.4837 12.7184 1.1363 4.87122 15.1652 2.5868 -0.878155 -9.76391 2.63963 2.43908 
-6.89685 97.6844 -38.0073 -106.649 -83.0268 -106.755 -170.287 2.78342 92.9945 -10.2004 9.94227 -2.51901 62.6102 2.08134 0.321517 29.0971 0.206714 0.44965 173.174 2.40944 88.0827 -12.5433 -8.75189 -1.34248 65.1499 -2.98671 -1.65487 29.0847 0.0224587 -0.116661 0.0634888 7.12633 -89.9551 12.6212 0.147585 0.072438 0.950232 0.150636 0.0658638 -21.585 0.118987 0.113441 -1.57231 0.118993 0.113446 92.7262 -46.1688 -97.3628 30.9642 -7.58403 1.53523 -10.0627 -29.1738 -41.9149 -3.32578 -0.815962 6.66434 -98.5931 -50.1564 66.1005 -21.5981 15.3117 1.46477 2.2315 12.4604 -30.6111 12.6514 1.1214 4.80138 15.1722 2.64 -0.72596 -9.79622 2.66157 2.2582 
-6.90924 97.6855 -37.904 -107.872 -83.2513 -108.044 -170.315 2.55742 92.9424 -9.95221 10.4066 -2.51857 62.4522 2.10396 0.61188 29.5184 0.526723 0.621302 173.009 2.26726 87.9447 -12.5506 -8.73159 -1.25598 65.1556 -2.95902 -1.63516 29.2577 0.0442964 -0.337727 0.0360766 7.13208 -89.9529 12.6097 0.0941478 0.0830243 0.938734 0.0977057 0.0787966 -21.5964 0.0648406 0.107483 -1.58376 0.0648444 0.107481 92.5693 -46.3636 -97.5773 30.9059 -7.37213 1.81547 -10.3948 -29.1501 -42.0431 -3.37368 -0.820353 6.64874 -98.7757 -50.1529 65.8338 -21.7437 15.1731 1.60313 2.30731 12.5103 -30.5371 12.6201 1.06761 4.41428 14.9456 2.61857 -0.785019 -9.6073 2.64901 2.46991 
-6.9141 97.6917 -37.8704 -107.71 -83.1479 -107.945 -170.339 2.51801 92.8843 -9.97109 10.294 -2.53117 62.3824 2.05203 0.642251 29.5506 0.555244 0.590889 173.047 2.31094 87.906 -12.68 -8.79014 -1.33836 65.2045 -2.97114 -1.64047 29.2714 0.0436603 -0.316313 0.0395317 7.14247 -89.9383 12.5897 0.107957 0.110632 0.918711 0.112725 0.105765 -21.6164 0.0697183 0.137963 -1.60378 0.0697089 0.137952 92.6087 -46.3955 -97.507 30.8741 -7.44791 1.69719 -10.2684 -29.1054 -42.0007 -3.19628 -0.80484 6.60441 -98.7481 -50.1852 65.8856 -21.7308 15.1618 1.70186 2.41723 12.4971 -30.7704 12.4046 1.10309 4.81658 15.0611 2.63016 -0.800697 -9.70548 2.66473 2.41838 
-6.88619 97.6898 -37.8046 -107.478 -83.1349 -107.638 -170.36 2.59651 92.9133 -10.2266 9.89728 -2.44465 62.6852 2.15077 0.238958 29.2225 0.266563 0.867785 173.038 2.15551 87.9551 -12.4105 -8.5952 -1.29203 65.1796 -2.98148 -1.64848 29.1664 0.00331859 0.262172 0.0350713 7.14432 -89.9451 12.576 0.0958748 0.0985863 0.90508 0.10012 0.0942645 -21.6301 0.0618103 0.122838 -1.61742 0.0618013 0.122829 92.5995 -46.3349 -97.534 31.0343 -7.46358 1.63555 -10.2866 -29.0329 -41.8098 -3.19618 -0.798671 6.44599 -98.6999 -50.1274 65.9353 -21.855 15.072 1.72946 2.36411 12.2837 -30.8507 12.4951 1.1674 5.24682 15.1088 2.66615 -0.767307 -9.78441 2.69668 2.27017 
-6.90632 97.6664 -37.6582 -106.166 -83.1958 -106.28 -170.352 2.72675 92.9225 -10.2941 10.3166 -2.47184 62.6186 2.26363 1.04741 29.517 0.542459 0.436881 173.138 2.24298 88.0376 -12.481 -8.65876 -1.34723 65.2781 -3.01446 -1.66569 29.3979 0.0406557 -0.16449 0.0520006 7.14027 -89.9298 12.5875 0.136833 0.124402 0.91655 0.14219 0.11825 -21.6186 0.0931158 0.159773 -1.60593 0.0931239 0.15977 92.7884 -46.6067 -97.1765 30.9508 -7.40152 1.45452 -10.2899 -29.2773 -41.5209 -3.28583 -0.798551 6.20106 -98.5259 -49.6836 66.0335 -22.1448 14.9761 1.51795 2.44687 12.4994 -30.6373 12.4539 1.17272 5.31639 15.2432 2.50419 -1.32219 -9.68578 2.66213 2.61847 
